<svg width="25" height="26" viewBox="0 0 25 26" fill="none" xmlns="http://www.w3.org/2000/svg">
<path id="Vector" d="M9.48029 1.94631e-05C8.52744 2.33044e-05 7.59602 0.339649 6.80393 0.975902C6.01184 1.61216 5.3947 2.51643 5.03064 3.57425C4.66657 4.63206 4.57195 5.79586 4.75875 6.91832C4.94555 8.04077 5.40538 9.07141 6.08001 9.87976C6.75465 10.6881 7.61377 11.2378 8.5486 11.4593C9.48344 11.6808 10.452 11.5641 11.3316 11.124C12.2112 10.6839 12.9623 9.9402 13.4899 8.98701C14.0175 8.03381 14.2977 6.91401 14.2953 5.76934C14.2953 5.01044 14.1706 4.259 13.9285 3.55805C13.6864 2.85711 13.3315 2.22044 12.8842 1.68451C12.437 1.14858 11.9061 0.723928 11.322 0.434875C10.7379 0.145822 10.112 -0.00195171 9.48029 1.94631e-05ZM17.9003 11.5087C17.8262 11.5105 17.7549 11.5427 17.6981 11.5999C17.6414 11.6572 17.6027 11.736 17.5884 11.8234L17.3639 13.7265C17.0049 13.9092 16.6622 14.1352 16.341 14.4009L14.8441 13.6816C14.7728 13.6671 14.6994 13.6778 14.633 13.7123C14.5666 13.7469 14.5099 13.8039 14.4699 13.8764L13.2225 16.3639C13.1861 16.4391 13.1736 16.5276 13.1874 16.6131C13.2011 16.6985 13.2402 16.775 13.2974 16.8285L14.5448 18.0123C14.4918 18.5098 14.4918 19.0133 14.5448 19.5108L13.2974 20.6947C13.2412 20.7455 13.2025 20.8194 13.1887 20.9023C13.1749 20.9852 13.1869 21.0713 13.2225 21.1442L14.4699 23.6468C14.5448 23.8416 14.7069 23.8416 14.8441 23.8416L16.341 23.1073C16.6573 23.3864 17.0008 23.6179 17.3639 23.7966L17.5884 25.6997C17.6006 25.787 17.6391 25.8659 17.6967 25.9212C17.7542 25.9765 17.8267 26.0044 17.9003 25.9994H20.3078C20.3771 25.9971 20.4436 25.966 20.4959 25.9113C20.5482 25.8567 20.5832 25.7819 20.5947 25.6997L20.8192 23.7966C21.1731 23.6051 21.5114 23.3743 21.8296 23.1073L23.314 23.8416C23.4637 23.8416 23.6259 23.8416 23.7132 23.6468L24.9606 21.1442C24.9962 21.0713 25.0082 20.9852 24.9944 20.9023C24.9806 20.8194 24.942 20.7455 24.8858 20.6947L23.6384 19.5108C23.6508 19.2663 23.6508 19.0211 23.6384 18.7766C23.6563 18.5373 23.6563 18.2965 23.6384 18.0573L24.8858 16.8734C24.9408 16.8182 24.9783 16.7418 24.992 16.6571C25.0056 16.5725 24.9945 16.4848 24.9606 16.4089L23.7132 13.9213C23.6384 13.7265 23.4762 13.7265 23.3265 13.7265L21.8296 14.5058C21.5114 14.2345 21.1681 14.0082 20.8067 13.8314L20.5822 11.9283C20.5762 11.8447 20.545 11.7666 20.4945 11.7087C20.4439 11.6507 20.3776 11.6169 20.3078 11.6136H18.0375M9.61751 14.5058C4.30355 14.5058 0 17.0532 0 20.2451V23.1223H11.6383C11.1132 21.7896 10.8408 20.3334 10.8408 18.859C10.8408 17.3845 11.1132 15.9284 11.6383 14.5957C10.9668 14.5173 10.292 14.4873 9.61751 14.5058ZM19.0978 16.6486C19.3471 16.6237 19.598 16.6612 19.8347 16.7587C20.0713 16.8562 20.2885 17.0116 20.4726 17.2151C20.6567 17.4186 20.8037 17.6658 20.9042 17.941C21.0047 18.2162 21.0566 18.5135 21.0566 18.814C21.0566 19.1146 21.0047 19.4118 20.9042 19.687C20.8037 19.9623 20.6567 20.2094 20.4726 20.4129C20.2885 20.6164 20.0713 20.7719 19.8347 20.8694C19.598 20.9669 19.3471 21.0043 19.0978 20.9794C18.6456 20.9342 18.2241 20.6864 17.9169 20.2853C17.6097 19.8842 17.4391 19.3591 17.4391 18.814C17.4391 18.2689 17.6097 17.7438 17.9169 17.3427C18.2241 16.9416 18.6456 16.6939 19.0978 16.6486Z" fill="white"/>
</svg>
