<svg width="22" height="28" viewBox="0 0 22 28" fill="none" xmlns="http://www.w3.org/2000/svg">
<path id="Vector" d="M8.32482 24.9052H12.9786C12.9786 25.5602 12.7334 26.1884 12.297 26.6516C11.8607 27.1148 11.2688 27.3751 10.6517 27.3751C10.0346 27.3751 9.44272 27.1148 9.00635 26.6516C8.56998 26.1884 8.32482 25.5602 8.32482 24.9052ZM0.26922 21.6733C0.181142 21.4476 0.158117 21.1992 0.203057 20.9596C0.247997 20.72 0.358882 20.4999 0.521685 20.3272L2.50766 18.2192V11.3208C2.5114 9.24423 3.21863 7.23837 4.5002 5.66943C5.78178 4.10049 7.55221 3.07315 9.48826 2.77498V1.44124C9.48826 1.11371 9.61083 0.799602 9.82902 0.568005C10.0472 0.336408 10.3431 0.206299 10.6517 0.206299C10.9603 0.206299 11.2562 0.336408 11.4744 0.568005C11.6925 0.799602 11.8151 1.11371 11.8151 1.44124V2.77498C13.7512 3.07315 15.5216 4.10049 16.8032 5.66943C18.0848 7.23837 18.792 9.24423 18.7957 11.3208V18.2192L20.7817 20.3272C20.9444 20.4999 21.0551 20.72 21.1 20.9595C21.1449 21.199 21.1218 21.4473 21.0338 21.6729C20.9457 21.8985 20.7967 22.0914 20.6054 22.2271C20.4141 22.3628 20.1892 22.4352 19.9591 22.4353H1.34423C1.11414 22.4353 0.889206 22.363 0.697857 22.2274C0.506509 22.0917 0.357343 21.8989 0.26922 21.6733ZM4.15276 19.9654H17.1506L16.8097 19.6036C16.5915 19.372 16.4689 19.0579 16.4689 18.7304V11.3208C16.4689 9.68315 15.856 8.11259 14.765 6.9546C13.6741 5.79662 12.1945 5.14607 10.6517 5.14607C9.10888 5.14607 7.62926 5.79662 6.53833 6.9546C5.44741 8.11259 4.83453 9.68315 4.83453 11.3208V18.7304C4.83446 19.0579 4.71184 19.372 4.49364 19.6036L4.15276 19.9654Z" fill="url(#paint0_linear_203_401)"/>
<defs>
<linearGradient id="paint0_linear_203_401" x1="10.6515" y1="0.206299" x2="10.6515" y2="27.375" gradientUnits="userSpaceOnUse">
<stop stop-color="#E913E0"/>
<stop offset="1" stop-color="#162CEF"/>
</linearGradient>
</defs>
</svg>
