<svg width="27" height="23" viewBox="0 0 27 23" fill="none" xmlns="http://www.w3.org/2000/svg">
<g id="Group 39">
<path id="Vector" fill-rule="evenodd" clip-rule="evenodd" d="M8.88928 9.39998H3.825C3.08191 9.39519 2.3668 9.622 1.83702 10.0305C1.30721 10.439 1.00612 10.9957 1 11.5782V19.8221C1.01375 21.0347 2.27828 22.0091 3.825 21.9989H8.88928C9.63232 22.0038 10.3475 21.777 10.8773 21.3685C11.4071 20.9601 11.7082 20.4033 11.7143 19.8207V11.5782C11.7082 10.9957 11.4071 10.439 10.8773 10.0305C10.3475 9.622 9.63232 9.39519 8.88928 9.39998Z" stroke="white" stroke-width="2" stroke-linecap="round" stroke-linejoin="round"/>
<path id="Vector_2" fill-rule="evenodd" clip-rule="evenodd" d="M8.88928 1.00085H3.825C2.30939 0.967892 1.0457 1.90282 1 3.09087V4.51035C1.0457 5.69842 2.30939 6.63334 3.825 6.60037H8.88928C10.4048 6.63334 11.6686 5.69842 11.7143 4.51035V3.09087C11.6686 1.90282 10.4048 0.967892 8.88928 1.00085Z" stroke="white" stroke-width="2" stroke-linecap="round" stroke-linejoin="round"/>
<path id="Vector_3" fill-rule="evenodd" clip-rule="evenodd" d="M18.1107 13.6005H23.1732C23.9166 13.6057 24.6321 13.3791 25.1623 12.9706C25.6925 12.562 25.9939 12.0051 26 11.4223V3.17976C25.9939 2.59724 25.6928 2.04048 25.163 1.63198C24.6332 1.22348 23.918 0.996697 23.175 1.00154H18.1107C17.3677 0.996697 16.6525 1.22348 16.1227 1.63198C15.5928 2.04048 15.2918 2.59724 15.2857 3.17976V11.4223C15.2918 12.0048 15.5928 12.5615 16.1227 12.97C16.6525 13.3785 17.3677 13.6053 18.1107 13.6005Z" stroke="white" stroke-width="2" stroke-linecap="round" stroke-linejoin="round"/>
<path id="Vector_4" fill-rule="evenodd" clip-rule="evenodd" d="M18.1107 21.9988H23.1732C24.6894 22.0325 25.9543 21.0974 26 19.9088V18.4893C25.9543 17.3012 24.6905 16.3664 23.175 16.3993H18.1107C16.5952 16.3664 15.3314 17.3012 15.2857 18.4893V19.9074C15.3303 21.096 16.5945 22.0317 18.1107 21.9988Z" stroke="white" stroke-width="2" stroke-linecap="round" stroke-linejoin="round"/>
</g>
</svg>
