<svg width="11" height="18" viewBox="0 0 11 18" fill="none" xmlns="http://www.w3.org/2000/svg">
<path d="M7.9906 8.20547L3.86472 7.09453C3.38718 6.96797 3.05482 6.55664 3.05482 6.09961C3.05482 5.52656 3.5591 5.0625 4.1818 5.0625H6.71463C7.18071 5.0625 7.63914 5.19258 8.02116 5.43164C8.2542 5.57578 8.56746 5.54062 8.76612 5.36133L10.0956 4.16602C10.3668 3.92344 10.3286 3.51914 10.0268 3.30469C9.09084 2.62969 7.92184 2.25352 6.72227 2.25V0.5625C6.72227 0.253125 6.44722 0 6.11103 0H4.88855C4.55236 0 4.27731 0.253125 4.27731 0.5625V2.25H4.1818C1.74829 2.25 -0.207686 4.17305 0.0177095 6.45469C0.178161 8.07539 1.52289 9.39375 3.21909 9.85078L7.13486 10.9055C7.6124 11.0355 7.94476 11.4434 7.94476 11.9004C7.94476 12.4734 7.44048 12.9375 6.81778 12.9375H4.28495C3.81887 12.9375 3.36044 12.8074 2.97842 12.5684C2.74538 12.4242 2.43212 12.4594 2.23346 12.6387L0.904011 13.834C0.632772 14.0766 0.670975 14.4809 0.972776 14.6953C1.90874 15.3703 3.07774 15.7465 4.27731 15.75V17.4375C4.27731 17.7469 4.55236 18 4.88855 18H6.11103C6.44722 18 6.72227 17.7469 6.72227 17.4375V15.743C8.50252 15.7113 10.172 14.7375 10.7603 13.1871C11.5817 11.0215 10.2025 8.79961 7.9906 8.20547Z" fill="url(#paint0_linear_637_57)"/>
<defs>
<linearGradient id="paint0_linear_637_57" x1="5.5" y1="0" x2="5.5" y2="18" gradientUnits="userSpaceOnUse">
<stop stop-color="#DF12F1"/>
<stop offset="1" stop-color="#2925E9" stop-opacity="0.6"/>
</linearGradient>
</defs>
</svg>
