<svg width="26" height="23" viewBox="0 0 26 23" fill="none" xmlns="http://www.w3.org/2000/svg">
<path d="M17.8127 4.34652L21.7276 8.26145C21.8926 8.42638 21.8926 8.69547 21.7276 8.86041L12.2485 18.3396L8.22069 18.7866C7.6825 18.8474 7.22677 18.3917 7.28753 17.8535L7.73458 13.8257L17.2137 4.34652C17.3787 4.18159 17.6478 4.18159 17.8127 4.34652ZM24.844 3.35259L22.7259 1.23454C22.0662 0.574816 20.9941 0.574816 20.3301 1.23454L18.7936 2.771C18.6287 2.93593 18.6287 3.20502 18.7936 3.36995L22.7085 7.28488C22.8735 7.44981 23.1426 7.44981 23.3075 7.28488L24.844 5.74843C25.5037 5.08436 25.5037 4.01232 24.844 3.35259ZM17.0054 15.7614V20.1798H3.11652V6.29096H13.0905C13.2294 6.29096 13.3596 6.23454 13.4594 6.13905L15.1955 4.40294C15.5254 4.07308 15.291 3.51318 14.8266 3.51318H2.42208C1.2719 3.51318 0.338745 4.44634 0.338745 5.59652V20.8743C0.338745 22.0245 1.2719 22.9576 2.42208 22.9576H17.6999C18.85 22.9576 19.7832 22.0245 19.7832 20.8743V14.0253C19.7832 13.5609 19.2233 13.3309 18.8934 13.6564L17.1573 15.3925C17.0618 15.4923 17.0054 15.6226 17.0054 15.7614Z" fill="#2DA7C2"/>
</svg>
