<svg width="18" height="18" viewBox="0 0 18 18" fill="none" xmlns="http://www.w3.org/2000/svg">
<path id="Vector" fill-rule="evenodd" clip-rule="evenodd" d="M17.0327 5.46934C17.6426 5.93341 18 6.65534 18 7.42173V15.5455C18 16.9011 16.9011 18 15.5455 18H2.45455C1.09894 18 0 16.9011 0 15.5455V7.42173C0 6.65534 0.357341 5.93341 0.967287 5.46934C2.75514 4.10908 6.48929 1.2694 7.52727 0.490909C8.40003 -0.163636 9.59997 -0.163636 10.4727 0.490909C11.5107 1.26939 15.2449 4.10908 17.0327 5.46934ZM1.63636 7.50175L7.47908 12.1144C8.37082 12.8185 9.62918 12.8185 10.5209 12.1144L16.3636 7.50175V15.5455C16.3636 15.9973 15.9973 16.3636 15.5455 16.3636H2.45455C2.00268 16.3636 1.63636 15.9973 1.63636 15.5455V7.50175ZM9.49091 1.8L15.3648 6.20544L9.50695 10.83C9.2097 11.0648 8.7903 11.0648 8.49305 10.83L2.63518 6.20544L8.50909 1.8C8.80004 1.58182 9.19996 1.58182 9.49091 1.8Z" fill="url(#paint0_linear_203_160)"/>
<defs>
<linearGradient id="paint0_linear_203_160" x1="9" y1="0" x2="9" y2="18" gradientUnits="userSpaceOnUse">
<stop stop-color="#DF12F1"/>
<stop offset="1" stop-color="#2925E9" stop-opacity="0.6"/>
</linearGradient>
</defs>
</svg>
