<svg width="61" height="57" viewBox="0 0 61 57" fill="none" xmlns="http://www.w3.org/2000/svg">
<g id="Group 60">
<path id="Vector" d="M54.5989 34.3468L51.9452 31.6931C51.8987 31.6465 51.8521 31.6 51.759 31.5534C55.2042 27.4564 54.9248 21.4041 51.1538 17.633L42.8202 9.29946C39.5612 6.08707 34.5797 5.34217 30.5759 7.57687C26.3392 4.83005 20.799 5.38873 17.2142 8.92701L9.99796 16.0967C5.85444 20.2402 5.85444 26.9909 9.99796 31.1344L24.5235 45.66C25.9668 47.1032 29.2723 50.7812 30.1569 51.6192L32.8106 54.2729C33.8814 55.3437 35.604 55.3437 36.6747 54.2729C37.7455 53.2021 37.7455 51.4795 36.6747 50.4087L35.9298 49.6638C35.4177 49.1517 35.4643 48.3602 35.9298 47.8481C36.5351 47.336 37.3265 47.6153 37.9318 48.2206L39.3285 49.6173C40.3993 50.6881 42.1218 50.6881 43.1926 49.6173C44.2634 48.5465 44.2634 46.8239 43.1926 45.7531L41.6097 44.1702C41.051 43.658 41.0045 42.7735 41.5166 42.1682C41.8891 41.6096 42.8667 41.563 43.6582 42.3079L45.1014 43.7512C46.1722 44.822 47.8948 44.822 48.9656 43.7512C50.0364 42.6804 50.0364 40.9578 48.9656 39.887C48.407 39.3749 47.8483 38.8627 47.3362 38.3041C46.9171 37.7454 46.5447 37.3264 47.0103 36.6746C47.243 36.3487 48.2673 35.8366 48.826 36.3487C49.2915 36.7677 50.6417 38.1644 50.6417 38.1644C51.7125 39.2352 53.435 39.2352 54.5058 38.1644C55.5766 37.0936 55.6697 35.4176 54.5989 34.3468Z" fill="#FFD7C4"/>
<path id="Vector_2" d="M34.7194 55.9957C33.7883 55.9957 32.8572 55.6232 32.1123 54.9249L29.4585 52.2712C29.0861 51.8987 28.2946 51.0607 27.4101 50.083C26.1996 48.7795 24.7098 47.15 23.8718 46.312L9.3462 31.7864C4.87679 27.2704 4.87679 19.9611 9.3462 15.4451L16.5624 8.22888C20.2869 4.50438 26.153 3.80603 30.6225 6.45974C34.9056 4.41126 40.1199 5.24928 43.5186 8.60133L51.8521 16.9815C55.7629 20.9388 56.2284 27.0377 53.0161 31.4605L53.6213 32.0657L55.2042 33.6487C56.6475 35.0919 56.6475 37.4197 55.2042 38.8164C53.761 40.2597 51.4331 40.2597 50.0365 38.8164L48.2673 37.0473C48.2208 37.0473 47.8949 37.1404 47.8017 37.2335V37.28C47.8483 37.3732 47.988 37.5594 48.0811 37.6991C48.5466 38.2112 49.0588 38.7233 49.5709 39.1423L49.6174 39.1889C51.0607 40.6321 51.0607 42.9599 49.6174 44.3566C48.1742 45.7999 45.8464 45.7999 44.4497 44.3566L43.0064 42.9134C42.634 42.5409 42.3081 42.5875 42.2615 42.634V42.8668C42.0753 43.053 42.0753 43.3789 42.3081 43.5652L43.891 45.1481C45.3343 46.5913 45.3343 48.9191 43.891 50.3158C43.1927 51.0142 42.2615 51.3866 41.2839 51.3866C40.3062 51.3866 39.375 51.0142 38.6767 50.3158L37.28 48.9191C37.0007 48.6398 36.7213 48.5001 36.5817 48.5932C36.5351 48.6864 36.4886 48.7795 36.4886 48.826C36.4886 48.8726 36.4886 48.9657 36.5817 49.0588L37.3266 49.8037C38.7698 51.247 38.7698 53.5748 37.3266 54.9715C36.5817 55.6698 35.6505 55.9957 34.7194 55.9957ZM24.7564 6.73908C22.2423 6.73908 19.7283 7.71676 17.866 9.57902L10.6963 16.7487C6.92527 20.5198 6.92527 26.6652 10.6963 30.4828L25.2219 45.0084C26.1065 45.893 27.5497 47.4293 28.8068 48.826C29.6913 49.8037 30.4828 50.6417 30.8087 50.9676L33.4624 53.6213C34.1607 54.3197 35.3246 54.3197 36.023 53.6213C36.3489 53.2954 36.5351 52.8299 36.5351 52.3643C36.5351 51.8987 36.3489 51.4332 36.023 51.1073L35.2781 50.3624C34.8591 49.9434 34.6263 49.3847 34.6263 48.7795C34.6263 48.1742 34.8591 47.6156 35.2781 47.2431L35.3246 47.1966C36.2092 46.4051 37.5593 46.5913 38.5836 47.6156L39.9803 49.0122C40.6786 49.7106 41.8425 49.7106 42.5409 49.0122C43.2392 48.3139 43.2392 47.15 42.5409 46.4517L40.958 44.8687C40.0734 44.0307 39.9803 42.5875 40.8183 41.6563C41.1442 41.2373 41.6563 40.958 42.2615 40.9114C43.0064 40.8649 43.7513 41.1442 44.3566 41.7495L45.7998 43.1927C46.4982 43.891 47.6621 43.891 48.3604 43.1927C49.0588 42.4944 49.0588 41.377 48.3604 40.6787C47.7552 40.1665 47.1965 39.6079 46.6844 39.0492L46.6378 39.0026C46.1723 38.444 45.4274 37.4663 46.3119 36.2558C46.6378 35.7902 47.3827 35.4178 48.0345 35.3247C48.5932 35.2781 49.1519 35.4178 49.5243 35.7902L51.3866 37.6525C52.0849 38.3508 53.2488 38.3508 53.9472 37.6525C54.2731 37.3266 54.4593 36.861 54.4593 36.3955C54.4593 35.9765 54.3196 35.5575 54.0403 35.2781L51.2935 32.5313C51.2469 32.5313 51.2004 32.4847 51.2004 32.4382L50.502 31.833L51.1072 31.1346C54.2731 27.3635 54.0403 21.9165 50.5486 18.4713L42.1684 9.95147C39.2354 7.01842 34.6263 6.36663 30.9949 8.36855L30.4828 8.64789L30.0172 8.322C28.4343 7.2512 26.572 6.73908 24.7564 6.73908Z" fill="black"/>
<path id="Vector_3" d="M1.29192 17.6331L17.6332 1.29179C18.0522 0.872787 18.704 0.872787 19.123 1.29179L21.4508 3.61961C21.8698 4.03862 21.8698 4.69041 21.4508 5.10942L5.10954 21.4507C4.69053 21.8697 4.03874 21.8697 3.61973 21.4507L1.29192 19.1229C0.872909 18.7039 0.872909 18.0521 1.29192 17.6331Z" fill="white"/>
<path id="Vector_4" d="M4.3181 22.7077C3.80598 22.7077 3.29386 22.5215 2.92141 22.1025L0.593593 19.7746C-0.197864 18.9832 -0.197864 17.7262 0.593593 16.9347L16.9814 0.63998C17.7729 -0.151478 19.0299 -0.151478 19.8214 0.63998L22.1492 2.9678C22.9406 3.75926 22.9406 5.01628 22.1492 5.80774L5.76135 22.1025C5.34234 22.4749 4.83022 22.7077 4.3181 22.7077ZM1.94373 18.2848C1.89717 18.3314 1.89717 18.4245 1.94373 18.4711L4.27155 20.7989C4.3181 20.8454 4.41121 20.8454 4.45777 20.7989L20.799 4.41105C20.8456 4.36449 20.8456 4.27138 20.799 4.22482L18.4712 1.897C18.4247 1.85045 18.3316 1.85045 18.285 1.897L1.94373 18.2848Z" fill="black"/>
<path id="Vector_5" d="M42.4477 1.29201L58.789 17.6333C59.208 18.0523 59.208 18.7041 58.789 19.1231L56.4612 21.4509C56.0422 21.8699 55.3904 21.8699 54.9714 21.4509L38.6301 5.10963C38.2111 4.69063 38.2111 3.99228 38.6301 3.57327L40.9579 1.24546C41.3769 0.873004 42.0287 0.873004 42.4477 1.29201Z" fill="white"/>
<path id="Vector_6" d="M55.7628 22.7079C55.2507 22.7079 54.7386 22.5216 54.3662 22.1026L37.9783 5.76135C37.1869 4.96989 37.1869 3.71287 37.9783 2.92141L40.3061 0.593594C41.0976 -0.197864 42.3546 -0.197864 43.1461 0.593594L59.4874 16.9349C60.2788 17.7263 60.2788 18.9834 59.4874 19.7748L57.1595 22.1026C56.7871 22.4751 56.275 22.7079 55.7628 22.7079ZM41.7028 1.89717C41.6563 1.89717 41.6563 1.89717 41.6097 1.94373L39.2819 4.27155C39.2353 4.3181 39.2353 4.41121 39.2819 4.45777L55.6232 20.7991C55.6697 20.8456 55.7628 20.8456 55.8094 20.7991L58.1372 18.4712C58.1838 18.4247 58.1838 18.3316 58.1372 18.285L41.7959 1.94373C41.7494 1.89717 41.7494 1.89717 41.7028 1.89717ZM38.6301 40.0734C38.3973 40.0734 38.1645 39.9803 37.9783 39.794L34.9522 36.7679C34.5797 36.3954 34.5797 35.8368 34.9522 35.4643C35.3246 35.0919 35.8833 35.0919 36.2557 35.4643L39.2819 38.4905C39.6543 38.8629 39.6543 39.4216 39.2819 39.794C39.0957 39.9803 38.8629 40.0734 38.6301 40.0734ZM44.2169 34.4866C43.9841 34.4866 43.7513 34.3935 43.5651 34.2073L40.5389 31.1811C40.1665 30.8087 40.1665 30.25 40.5389 29.8775C40.9114 29.5051 41.47 29.5051 41.8425 29.8775L44.8687 32.9037C45.2411 33.2762 45.2411 33.8348 44.8687 34.2073C44.6824 34.3935 44.4497 34.4866 44.2169 34.4866ZM32.8106 45.8929C32.5778 45.8929 32.345 45.7998 32.1588 45.6136L29.1326 42.5874C28.7602 42.215 28.7602 41.6563 29.1326 41.2838C29.5051 40.9114 30.0637 40.9114 30.4362 41.2838L33.4624 44.31C33.8348 44.6825 33.8348 45.2411 33.4624 45.6136C33.2761 45.7998 33.0433 45.8929 32.8106 45.8929Z" fill="black"/>
<path id="Vector_7" d="M15.3519 31.7397C16.4227 32.8105 16.4227 34.5331 15.3519 35.6039L12.6982 38.211C11.6274 39.2818 9.90484 39.2818 8.83404 38.211C7.76325 37.1402 7.76325 35.4176 8.83404 34.3468L11.4878 31.6931C12.5586 30.6689 14.2811 30.6689 15.3519 31.7397Z" fill="#FFE2D1"/>
<path id="Vector_8" d="M10.7894 39.9339C9.85828 39.9339 8.92715 39.5614 8.18225 38.8631C7.4839 38.1647 7.11145 37.2336 7.11145 36.2559C7.11145 35.2782 7.4839 34.3471 8.18225 33.6487L10.836 30.995C12.2792 29.5518 14.607 29.5518 16.0037 30.995C16.7021 31.6934 17.0745 32.6245 17.0745 33.6022C17.0745 34.5799 16.7021 35.511 16.0037 36.2093L13.35 38.8631C12.6517 39.608 11.7205 39.9339 10.7894 39.9339ZM13.4431 31.833C12.9776 31.833 12.512 32.0193 12.1861 32.3452L9.53238 34.9989C9.20649 35.3248 9.02026 35.7903 9.02026 36.2559C9.02026 36.7215 9.20649 37.187 9.53238 37.5129C10.2307 38.2113 11.3946 38.2113 12.093 37.5129L14.7467 34.8592C15.0726 34.5333 15.2588 34.0678 15.2588 33.6022C15.2588 33.1366 15.0726 32.6711 14.7467 32.3452C14.3277 32.0193 13.8621 31.833 13.4431 31.833Z" fill="black"/>
<path id="Vector_9" d="M20.9387 37.3266C22.0095 38.3974 22.0095 40.12 20.9387 41.1908L18.285 43.7979C17.2142 44.8687 15.4916 44.8687 14.4208 43.7979C13.35 42.7271 13.35 41.0045 14.4208 39.9337L17.0745 37.28C18.1453 36.2558 19.8679 36.2558 20.9387 37.3266Z" fill="#FFE2D1"/>
<path id="Vector_10" d="M16.3762 45.5204C15.3985 45.5204 14.4674 45.1479 13.769 44.4496L13.7225 44.403C13.0241 43.7047 12.6517 42.8201 12.6517 41.8424C12.6517 40.8647 13.0241 39.9336 13.7225 39.2353L16.3762 36.5815C17.0745 35.8832 18.0057 35.5107 18.9833 35.5107C19.961 35.5107 20.8921 35.8832 21.5905 36.5815C22.2888 37.2799 22.6613 38.211 22.6613 39.1887C22.6613 40.1664 22.2888 41.0975 21.5905 41.7959L18.9368 44.4496C18.285 45.1479 17.3539 45.5204 16.3762 45.5204ZM15.1192 43.1925C15.8175 43.8443 16.9814 43.8443 17.6332 43.1925L20.2869 40.5388C20.6128 40.2129 20.799 39.7474 20.799 39.2818C20.799 38.8162 20.6128 38.3507 20.2869 38.0248C19.5886 37.3264 18.4247 37.3264 17.7263 38.0248L15.0726 40.6785C14.7467 41.0044 14.5605 41.47 14.5605 41.9355C14.5605 42.4011 14.7467 42.8201 15.1192 43.1925Z" fill="black"/>
<path id="Vector_11" d="M26.4789 42.8666C27.5497 43.9374 27.5497 45.66 26.4789 46.7308L23.2665 49.9431C22.1957 51.0139 20.4731 51.0139 19.4023 49.9431C18.3315 48.8723 18.3315 47.1498 19.4023 46.079L22.6147 42.8666C23.6855 41.7958 25.4081 41.7958 26.4789 42.8666Z" fill="#FFE2D1"/>
<path id="Vector_12" d="M21.3577 51.6659C20.38 51.6659 19.4489 51.2935 18.7505 50.5952C18.0522 49.8968 17.6797 48.9657 17.6797 47.988C17.6797 47.0103 18.0522 46.0792 18.7505 45.3808L21.9629 42.1685C22.6613 41.4701 23.5924 41.0977 24.5701 41.0977C25.5478 41.0977 26.4789 41.4701 27.1772 42.1685C27.8756 42.8668 28.248 43.7979 28.248 44.7756C28.248 45.7533 27.8756 46.6844 27.1772 47.3828L23.9649 50.5952C23.22 51.2935 22.3354 51.6659 21.3577 51.6659ZM24.5701 43.0065C24.1045 43.0065 23.639 43.1927 23.3131 43.5186L20.1007 46.731C19.7748 47.0569 19.5886 47.5224 19.5886 47.988C19.5886 48.4536 19.7748 48.9191 20.1007 49.245C20.799 49.9434 21.9629 49.9434 22.6613 49.245L25.8737 46.0326C26.1996 45.7067 26.3858 45.2412 26.3858 44.7756C26.3858 44.31 26.1996 43.8445 25.8737 43.5186C25.5012 43.1927 25.0357 43.0065 24.5701 43.0065Z" fill="black"/>
<path id="Vector_13" d="M32.9503 47.569C34.0211 48.6398 34.0211 50.3623 32.9503 51.4331L30.1103 54.2731C29.0395 55.3439 27.3169 55.3439 26.2462 54.2731C25.1754 53.2023 25.1754 51.4797 26.2462 50.4089L29.0861 47.569C30.1569 46.5447 31.8795 46.5447 32.9503 47.569Z" fill="#FFE2D1"/>
<path id="Vector_14" d="M28.1549 56.042C27.1773 56.042 26.2461 55.6696 25.5478 54.9712C24.8494 54.2729 24.477 53.3418 24.477 52.3641C24.477 51.3864 24.8494 50.4553 25.5478 49.7569L28.3877 46.917C29.0861 46.2186 30.0172 45.8462 30.9949 45.8462C31.9726 45.8462 32.9037 46.2186 33.602 46.917C35.0453 48.3602 35.0453 50.688 33.602 52.0847L30.7621 54.9712C30.0638 55.623 29.1326 56.042 28.1549 56.042ZM30.9949 47.7084C30.5293 47.7084 30.0638 47.8947 29.7379 48.2206L26.8979 51.0605C26.572 51.3864 26.3858 51.852 26.3858 52.3175C26.3858 52.7831 26.572 53.2486 26.8979 53.5745C27.5963 54.2729 28.7602 54.2729 29.4585 53.5745L32.2985 50.7346C32.9968 50.0363 32.9968 48.8724 32.2985 48.174C31.926 47.8947 31.507 47.7084 30.9949 47.7084Z" fill="black"/>
<path id="Vector_15" d="M51.9452 32.6708C51.7125 32.6708 51.4797 32.5777 51.2935 32.3915L32.8106 14.4673L23.4062 23.8717C21.9629 25.3149 19.6351 25.3149 18.2384 23.8717C16.7952 22.4284 16.7952 20.1006 18.2384 18.7039L29.9706 6.97172C30.3431 6.59927 30.9018 6.59927 31.2742 6.97172C31.6467 7.34417 31.6467 7.90285 31.2742 8.2753L19.542 20.0075C18.8437 20.7058 18.8437 21.8698 19.542 22.5681C20.2404 23.2664 21.4043 23.2664 22.1026 22.5681L32.8106 11.8601L52.597 31.0879C52.9695 31.4604 52.9695 32.019 52.597 32.3915C52.4574 32.5777 52.178 32.6708 51.9452 32.6708Z" fill="black"/>
</g>
</svg>
