<svg width="26" height="27" viewBox="0 0 26 27" fill="none" xmlns="http://www.w3.org/2000/svg">
<g id="&#240;&#159;&#148;&#141;-Product-Icons">
<g id="ic_fluent_team_add_24_filled">
<path id="&#240;&#159;&#142;&#168;-Color" d="M19.1905 12.15C22.9513 12.15 26 15.4743 26 19.575C26 23.6757 22.9513 27 19.1905 27C15.4297 27 12.381 23.6757 12.381 19.575C12.381 15.4743 15.4297 12.15 19.1905 12.15ZM19.1905 14.849L19.0792 14.8598C18.8265 14.9099 18.6273 15.1271 18.5814 15.4026L18.5714 15.524L18.571 18.899L15.4733 18.9L15.362 18.9109C15.1093 18.9609 14.9101 19.1781 14.8642 19.4537L14.8542 19.575L14.8642 19.6963C14.9101 19.9719 15.1093 20.1891 15.362 20.2391L15.4733 20.25L18.5722 20.249L18.5728 23.6297L18.5828 23.751C18.6286 24.0266 18.8279 24.2438 19.0806 24.2938L19.1918 24.3047L19.3031 24.2938C19.5558 24.2438 19.7551 24.0266 19.8009 23.751L19.8109 23.6297L19.8103 20.249L22.9104 20.25L23.0217 20.2391C23.2744 20.1891 23.4736 19.9719 23.5195 19.6963L23.5295 19.575L23.5195 19.4537C23.4736 19.1781 23.2744 18.9609 23.0217 18.9109L22.9104 18.9L19.8091 18.899L19.8095 15.524L19.7995 15.4026C19.7537 15.1271 19.5544 14.9099 19.3018 14.8598L19.1905 14.849ZM15.1716 9.45C16.2049 9.45 17.1068 10.0634 17.5877 10.9744C13.9104 11.785 11.1429 15.3276 11.1429 19.575C11.1429 21.3154 11.6075 22.9374 12.4089 24.3016L12.3846 24.3C9.30691 24.3 6.81191 21.5795 6.81191 18.2236V12.4875C6.81191 10.8099 8.05912 9.45 9.59762 9.45H15.1716ZM6.6937 9.45037C6.05789 10.173 5.64672 11.1324 5.5826 12.1952L5.57381 12.4875V18.2236C5.57381 19.3666 5.81062 20.4492 6.23365 21.4164C5.8262 21.5366 5.39684 21.6 4.95392 21.6C2.21794 21.6 0 19.1816 0 16.1983V12.4875C0 10.8798 1.14544 9.56388 2.59499 9.45701L2.78571 9.45L6.6937 9.45037ZM21.9762 9.45C23.5147 9.45 24.7619 10.8099 24.7619 12.4875L24.7629 13.244C23.3169 11.7303 21.3533 10.8 19.1905 10.8L18.8894 10.806C18.6969 10.3 18.419 9.84065 18.0756 9.45037L21.9762 9.45ZM20.4286 1.35C22.138 1.35 23.5238 2.86104 23.5238 4.725C23.5238 6.58896 22.138 8.1 20.4286 8.1C18.7191 8.1 17.3333 6.58896 17.3333 4.725C17.3333 2.86104 18.7191 1.35 20.4286 1.35ZM12.381 0C14.4323 0 16.0952 1.81325 16.0952 4.05C16.0952 6.28675 14.4323 8.1 12.381 8.1C10.3296 8.1 8.66667 6.28675 8.66667 4.05C8.66667 1.81325 10.3296 0 12.381 0ZM4.33333 1.35C6.04279 1.35 7.42857 2.86104 7.42857 4.725C7.42857 6.58896 6.04279 8.1 4.33333 8.1C2.62388 8.1 1.2381 6.58896 1.2381 4.725C1.2381 2.86104 2.62388 1.35 4.33333 1.35Z" fill="white"/>
</g>
</g>
</svg>
