<svg width="25" height="17" viewBox="0 0 25 17" fill="none" xmlns="http://www.w3.org/2000/svg">
<path d="M22.9167 16.8332H2.08333C0.932726 16.8332 0 15.9004 0 14.7498V2.24984C0 1.09923 0.932726 0.166504 2.08333 0.166504H22.9167C24.0673 0.166504 25 1.09923 25 2.24984V14.7498C25 15.9004 24.0673 16.8332 22.9167 16.8332ZM5.55556 5.20123V3.46511C5.55556 3.17748 5.32235 2.94428 5.03472 2.94428H3.29861C3.01098 2.94428 2.77778 3.17748 2.77778 3.46511V5.20123C2.77778 5.48886 3.01098 5.72206 3.29861 5.72206H5.03472C5.32235 5.72206 5.55556 5.48886 5.55556 5.20123ZM9.72222 5.20123V3.46511C9.72222 3.17748 9.48902 2.94428 9.20139 2.94428H7.46528C7.17765 2.94428 6.94444 3.17748 6.94444 3.46511V5.20123C6.94444 5.48886 7.17765 5.72206 7.46528 5.72206H9.20139C9.48902 5.72206 9.72222 5.48886 9.72222 5.20123ZM13.8889 5.20123V3.46511C13.8889 3.17748 13.6557 2.94428 13.3681 2.94428H11.6319C11.3443 2.94428 11.1111 3.17748 11.1111 3.46511V5.20123C11.1111 5.48886 11.3443 5.72206 11.6319 5.72206H13.3681C13.6557 5.72206 13.8889 5.48886 13.8889 5.20123ZM18.0556 5.20123V3.46511C18.0556 3.17748 17.8224 2.94428 17.5347 2.94428H15.7986C15.511 2.94428 15.2778 3.17748 15.2778 3.46511V5.20123C15.2778 5.48886 15.511 5.72206 15.7986 5.72206H17.5347C17.8224 5.72206 18.0556 5.48886 18.0556 5.20123ZM22.2222 5.20123V3.46511C22.2222 3.17748 21.989 2.94428 21.7014 2.94428H19.9653C19.6776 2.94428 19.4444 3.17748 19.4444 3.46511V5.20123C19.4444 5.48886 19.6776 5.72206 19.9653 5.72206H21.7014C21.989 5.72206 22.2222 5.48886 22.2222 5.20123ZM7.63889 9.36789V7.63178C7.63889 7.34415 7.40569 7.11095 7.11806 7.11095H5.38194C5.09431 7.11095 4.86111 7.34415 4.86111 7.63178V9.36789C4.86111 9.65552 5.09431 9.88873 5.38194 9.88873H7.11806C7.40569 9.88873 7.63889 9.65552 7.63889 9.36789ZM11.8056 9.36789V7.63178C11.8056 7.34415 11.5724 7.11095 11.2847 7.11095H9.54861C9.26098 7.11095 9.02778 7.34415 9.02778 7.63178V9.36789C9.02778 9.65552 9.26098 9.88873 9.54861 9.88873H11.2847C11.5724 9.88873 11.8056 9.65552 11.8056 9.36789ZM15.9722 9.36789V7.63178C15.9722 7.34415 15.739 7.11095 15.4514 7.11095H13.7153C13.4276 7.11095 13.1944 7.34415 13.1944 7.63178V9.36789C13.1944 9.65552 13.4276 9.88873 13.7153 9.88873H15.4514C15.739 9.88873 15.9722 9.65552 15.9722 9.36789ZM20.1389 9.36789V7.63178C20.1389 7.34415 19.9057 7.11095 19.6181 7.11095H17.8819C17.5943 7.11095 17.3611 7.34415 17.3611 7.63178V9.36789C17.3611 9.65552 17.5943 9.88873 17.8819 9.88873H19.6181C19.9057 9.88873 20.1389 9.65552 20.1389 9.36789ZM5.55556 13.5346V11.7984C5.55556 11.5108 5.32235 11.2776 5.03472 11.2776H3.29861C3.01098 11.2776 2.77778 11.5108 2.77778 11.7984V13.5346C2.77778 13.8222 3.01098 14.0554 3.29861 14.0554H5.03472C5.32235 14.0554 5.55556 13.8222 5.55556 13.5346ZM18.0556 13.5346V11.7984C18.0556 11.5108 17.8224 11.2776 17.5347 11.2776H7.46528C7.17765 11.2776 6.94444 11.5108 6.94444 11.7984V13.5346C6.94444 13.8222 7.17765 14.0554 7.46528 14.0554H17.5347C17.8224 14.0554 18.0556 13.8222 18.0556 13.5346ZM22.2222 13.5346V11.7984C22.2222 11.5108 21.989 11.2776 21.7014 11.2776H19.9653C19.6776 11.2776 19.4444 11.5108 19.4444 11.7984V13.5346C19.4444 13.8222 19.6776 14.0554 19.9653 14.0554H21.7014C21.989 14.0554 22.2222 13.8222 22.2222 13.5346Z" fill="url(#paint0_linear_632_55)"/>
<defs>
<linearGradient id="paint0_linear_632_55" x1="12.5" y1="0.166504" x2="12.5" y2="16.8332" gradientUnits="userSpaceOnUse">
<stop stop-color="#DF12F1"/>
<stop offset="1" stop-color="#2925E9" stop-opacity="0.6"/>
</linearGradient>
</defs>
</svg>
