<svg width="24" height="24" viewBox="0 0 24 24" fill="none" xmlns="http://www.w3.org/2000/svg">
<g id="lock">
<path id="Vector" d="M19 11H5C3.89543 11 3 11.8954 3 13V20C3 21.1046 3.89543 22 5 22H19C20.1046 22 21 21.1046 21 20V13C21 11.8954 20.1046 11 19 11Z" stroke="url(#paint0_linear_203_104)" stroke-opacity="0.5" stroke-width="2" stroke-linecap="round" stroke-linejoin="round"/>
<path id="Vector_2" d="M7 11V7C7 5.67392 7.52678 4.40215 8.46447 3.46447C9.40215 2.52678 10.6739 2 12 2C13.3261 2 14.5979 2.52678 15.5355 3.46447C16.4732 4.40215 17 5.67392 17 7V11" stroke="url(#paint1_linear_203_104)" stroke-opacity="0.5" stroke-width="2" stroke-linecap="round" stroke-linejoin="round"/>
</g>
<defs>
<linearGradient id="paint0_linear_203_104" x1="12" y1="11" x2="12" y2="22" gradientUnits="userSpaceOnUse">
<stop offset="0.161458" stop-color="#E921FB"/>
<stop offset="1" stop-color="#3314F1"/>
</linearGradient>
<linearGradient id="paint1_linear_203_104" x1="12" y1="2" x2="12" y2="11" gradientUnits="userSpaceOnUse">
<stop offset="0.161458" stop-color="#E921FB"/>
<stop offset="1" stop-color="#3314F1"/>
</linearGradient>
</defs>
</svg>
