<svg width="28" height="26" viewBox="0 0 28 26" fill="none" xmlns="http://www.w3.org/2000/svg">
<g id="Group">
<g id="Group_2">
<g id="Group_3">
<path id="Vector" d="M4.94438 10.2642H0V23.7546H4.94438V10.2642Z" fill="white"/>
<path id="Vector_2" d="M27.9996 22.8097L22.0976 17.3378L21.331 17.771L20.1679 16.7265C21.9846 14.3636 21.7683 11.0697 19.483 8.95065C19.3269 8.8059 19.149 8.69677 18.9808 8.57092V0H14.04V7.24799C13.3203 7.3326 12.6222 7.52969 11.9601 7.83705V5.63448H7.02301V23.7562H11.959V18.6128C12.621 18.919 13.3203 19.1161 14.0388 19.2007V23.7551H18.9796V18.4313L19.7414 19.1116L19.3028 19.9278L25.206 25.3953C25.206 25.3953 26.4893 25.4109 27.2631 24.5914C28.0404 23.7729 27.9996 22.8097 27.9996 22.8097ZM11.3173 9.92941C13.2723 8.10988 16.46 8.10879 18.4233 9.92828C20.3842 11.7489 20.3854 14.6942 18.4197 16.5193C16.46 18.3354 13.2758 18.3377 11.3113 16.517C9.34803 14.6998 9.3492 11.7489 11.3173 9.92941Z" fill="white"/>
</g>
</g>
</g>
</svg>
