<svg width="26" height="26" viewBox="0 0 26 26" fill="none" xmlns="http://www.w3.org/2000/svg">
<path d="M2.59729 11.3993H22.9098C23.117 11.3993 23.3157 11.317 23.4622 11.1705C23.6087 11.024 23.691 10.8252 23.691 10.618V9.05554C23.691 8.84834 23.6087 8.64963 23.4622 8.50311C23.3157 8.3566 23.117 8.27429 22.9098 8.27429H2.59729C2.39009 8.27429 2.19138 8.3566 2.04486 8.50311C1.89835 8.64963 1.81604 8.84834 1.81604 9.05554L1.81604 10.618C1.81604 10.8252 1.89835 11.024 2.04486 11.1705C2.19138 11.317 2.39009 11.3993 2.59729 11.3993ZM22.9098 20.7743H2.59729C2.39009 20.7743 2.19138 20.8566 2.04486 21.0031C1.89835 21.1496 1.81604 21.3483 1.81604 21.5555L1.81604 23.118C1.81604 23.3252 1.89835 23.524 2.04486 23.6705C2.19138 23.817 2.39009 23.8993 2.59729 23.8993H22.9098C23.117 23.8993 23.3157 23.817 23.4622 23.6705C23.6087 23.524 23.691 23.3252 23.691 23.118V21.5555C23.691 21.3483 23.6087 21.1496 23.4622 21.0031C23.3157 20.8566 23.117 20.7743 22.9098 20.7743ZM23.0646 2.02429H10.255C10.1727 2.02423 10.0912 2.04039 10.0152 2.07185C9.93916 2.10331 9.87007 2.14945 9.81188 2.20764C9.7537 2.26582 9.70756 2.33491 9.6761 2.41094C9.64464 2.48698 9.62848 2.56847 9.62854 2.65076V4.52283C9.62848 4.60511 9.64464 4.68661 9.6761 4.76264C9.70756 4.83868 9.7537 4.90776 9.81188 4.96595C9.87007 5.02413 9.93916 5.07028 10.0152 5.10174C10.0912 5.1332 10.1727 5.14936 10.255 5.14929H23.0646C23.1469 5.14936 23.2284 5.1332 23.3044 5.10174C23.3804 5.07028 23.4495 5.02413 23.5077 4.96595C23.5659 4.90776 23.612 4.83868 23.6435 4.76264C23.6749 4.68661 23.6911 4.60511 23.691 4.52283V2.65076C23.6911 2.56847 23.6749 2.48698 23.6435 2.41094C23.612 2.33491 23.5659 2.26582 23.5077 2.20764C23.4495 2.14945 23.3804 2.10331 23.3044 2.07185C23.2284 2.04039 23.1469 2.02423 23.0646 2.02429ZM23.0646 14.5243H10.255C10.1727 14.5242 10.0912 14.5404 10.0152 14.5718C9.93916 14.6033 9.87007 14.6495 9.81188 14.7076C9.7537 14.7658 9.70756 14.8349 9.6761 14.9109C9.64464 14.987 9.62848 15.0685 9.62854 15.1508V17.0228C9.62848 17.1051 9.64464 17.1866 9.6761 17.2626C9.70756 17.3387 9.7537 17.4078 9.81188 17.4659C9.87007 17.5241 9.93916 17.5703 10.0152 17.6017C10.0912 17.6332 10.1727 17.6494 10.255 17.6493H23.0646C23.1469 17.6494 23.2284 17.6332 23.3044 17.6017C23.3804 17.5703 23.4495 17.5241 23.5077 17.4659C23.5659 17.4078 23.612 17.3387 23.6435 17.2626C23.6749 17.1866 23.6911 17.1051 23.691 17.0228V15.1508C23.6911 15.0685 23.6749 14.987 23.6435 14.9109C23.612 14.8349 23.5659 14.7658 23.5077 14.7076C23.4495 14.6495 23.3804 14.6033 23.3044 14.5718C23.2284 14.5404 23.1469 14.5242 23.0646 14.5243Z" fill="white"/>
</svg>
