<svg width="121" height="131" viewBox="0 0 121 131" fill="none" xmlns="http://www.w3.org/2000/svg">
<g id="growth-income-investment_svgrepo.com">
<path id="Vector" d="M30.25 57.3125H45.4544C48.4419 57.3125 51.307 58.5974 53.4195 60.8844C55.532 63.1715 56.7188 66.2734 56.7188 69.5078V73.6875H41.5143C38.5269 73.6875 35.6617 72.4026 33.5493 70.1156C31.4368 67.8285 30.25 64.7266 30.25 61.4922V57.3125Z" fill="#027DE5"/>
<path id="Vector_2" d="M79.4857 73.6875H64.2812V69.5078C64.2812 66.2734 65.468 63.1715 67.5805 60.8844C69.693 58.5974 72.5581 57.3125 75.5456 57.3125H90.75V61.4922C90.75 64.7266 89.5632 67.8285 87.4508 70.1156C85.3383 72.4026 82.4731 73.6875 79.4857 73.6875Z" fill="#027DE5"/>
<path id="Vector_3" d="M86.9688 57.3125V57.3985C86.9683 60.6327 85.7813 63.7343 83.6689 66.0212C81.5566 68.3082 78.6917 69.5932 75.7044 69.5938H64.2812V45.0312C64.2812 43.9455 63.8829 42.9043 63.1738 42.1365C62.4646 41.3688 61.5028 40.9375 60.5 40.9375C59.4972 40.9375 58.5354 41.3688 57.8263 42.1365C57.1171 42.9043 56.7188 43.9455 56.7188 45.0312V69.5938H45.2956C42.3083 69.5932 39.4434 68.3082 37.3311 66.0212C35.2187 63.7343 34.0318 60.6327 34.0312 57.3985V57.3125H30.25V61.4922C30.2505 64.7264 31.4374 67.828 33.5498 70.115C35.6622 72.4019 38.527 73.687 41.5143 73.6875H56.7188V88.0156H64.2812V73.6875H79.4857C82.473 73.687 85.3378 72.4019 87.4502 70.115C89.5626 67.828 90.7495 64.7264 90.75 61.4922V57.3125H86.9688Z" fill="#0468AD"/>
<path id="Vector_4" d="M60.5 47.0781C70.9416 47.0781 79.4062 37.914 79.4062 26.6094C79.4062 15.3048 70.9416 6.14062 60.5 6.14062C50.0584 6.14062 41.5938 15.3048 41.5938 26.6094C41.5938 37.914 50.0584 47.0781 60.5 47.0781Z" fill="#027DE5"/>
<path id="Vector_5" d="M79.4062 124.86H41.5938L35.5475 94.312H85.4525L79.4062 124.86Z" fill="#CFCFD9"/>
<path id="Vector_6" d="M50.5496 124.86H41.5937L35.5437 94.312H85.4562C83.745 102.96 79.3458 110.71 72.993 116.269C66.6402 121.829 58.7183 124.861 50.5496 124.86Z" fill="#D9DAE2"/>
<path id="Vector_7" d="M90.75 83.9219H30.25V96.2031H90.75V83.9219Z" fill="#E5E6EB"/>
<path id="Vector_8" d="M90.75 83.9219H83.1875V96.2031H90.75V83.9219Z" fill="#CFCFD9"/>
<path id="Vector_9" d="M56.7188 112.578H52.9375V116.672H56.7188V112.578Z" fill="#444444"/>
<path id="Vector_10" d="M68.0625 112.578H64.2812V116.672H68.0625V112.578Z" fill="#444444"/>
<path id="Vector_11" d="M88.0765 45.8782C87.3673 45.1105 86.969 44.0692 86.969 42.9835C86.969 41.8978 87.3673 40.8565 88.0765 40.0888L90.7502 37.1941L93.424 40.0888C94.1331 40.8565 94.5315 41.8978 94.5315 42.9835C94.5315 44.0692 94.1331 45.1105 93.424 45.8782C92.7148 46.646 91.7531 47.0773 90.7502 47.0773C89.7474 47.0773 88.7856 46.646 88.0765 45.8782Z" fill="#CCEAFF"/>
<path id="Vector_12" d="M88.0761 23.3631C87.367 22.5954 86.9686 21.5541 86.9686 20.4684C86.9686 19.3826 87.367 18.3414 88.0761 17.5737L90.7499 14.6789L93.4236 17.5737C94.1327 18.3414 94.5311 19.3826 94.5311 20.4684C94.5311 21.5541 94.1327 22.5954 93.4236 23.3631C92.7145 24.1308 91.7527 24.5621 90.7499 24.5621C89.747 24.5621 88.7853 24.1308 88.0761 23.3631Z" fill="#CCEAFF"/>
<path id="Vector_13" d="M29.4657 37.3416C28.7566 36.5739 28.3582 35.5326 28.3582 34.4469C28.3582 33.3612 28.7566 32.3199 29.4657 31.5522L32.1394 28.6575L34.8132 31.5522C35.5223 32.3199 35.9207 33.3612 35.9207 34.4469C35.9207 35.5326 35.5223 36.5739 34.8132 37.3416C34.1041 38.1093 33.1423 38.5406 32.1395 38.5406C31.1366 38.5406 30.1748 38.1093 29.4657 37.3416Z" fill="#CCEAFF"/>
<path id="Vector_14" d="M29.4654 14.8265C28.7562 14.0587 28.3579 13.0175 28.3579 11.9318C28.3579 10.846 28.7562 9.80476 29.4654 9.03704L32.1391 6.14232L34.8129 9.03704C35.522 9.80476 35.9204 10.846 35.9204 11.9318C35.9204 13.0175 35.522 14.0587 34.8129 14.8265C34.1037 15.5942 33.142 16.0255 32.1391 16.0255C31.1363 16.0255 30.1745 15.5942 29.4654 14.8265Z" fill="#CCEAFF"/>
<path id="Vector_15" d="M60.5 42.9844H56.7188V69.5938H60.5V42.9844Z" fill="#027DE5"/>
<path id="Vector_16" d="M71.8286 10.251C74.5655 14.1869 75.8973 19.0606 75.5789 23.9752C75.2604 28.8897 73.3131 33.5144 70.0954 36.998C66.8777 40.4817 62.606 42.5899 58.0667 42.9347C53.5273 43.2794 49.0256 41.8376 45.3901 38.8745C47.0118 41.2238 49.0813 43.1679 51.4582 44.575C53.8351 45.9821 56.4637 46.8192 59.1657 47.0296C61.8677 47.24 64.5799 46.8187 67.1183 45.7943C69.6567 44.7699 71.9618 43.1664 73.8774 41.0925C75.7929 39.0187 77.274 36.523 78.2202 33.7748C79.1664 31.0267 79.5556 28.0903 79.3612 25.165C79.1669 22.2397 78.3937 19.3938 77.094 16.8206C75.7943 14.2473 73.9986 12.0067 71.8286 10.251Z" fill="#0468AD"/>
<path id="Vector_17" d="M59.2597 21.4717C59.0529 21.2851 58.8842 21.054 58.7645 20.7929C58.6447 20.5318 58.5766 20.2466 58.5643 19.9554C58.552 19.6642 58.5959 19.3735 58.6932 19.1017C58.7905 18.8299 58.939 18.583 59.1293 18.3768C59.4988 17.9957 59.9896 17.7831 60.5 17.7831C61.0104 17.7831 61.5012 17.9957 61.8707 18.3768L64.8352 21.5863L67.5085 18.6921L64.544 15.4805C63.9361 14.8301 63.1998 14.3374 62.3906 14.0395V6.24297C61.7686 6.17747 61.139 6.14062 60.5 6.14062C59.861 6.14062 59.2314 6.17747 58.6094 6.24297V14.0375C57.7996 14.3363 57.0628 14.8297 56.4541 15.4805C55.892 16.0889 55.4532 16.8173 55.1655 17.6195C54.8779 18.4216 54.7477 19.2798 54.7833 20.1394C54.8188 20.9989 55.0194 21.8411 55.3721 22.6121C55.7249 23.3832 56.2221 24.0662 56.8322 24.6178L61.7346 29.0411C61.9413 29.2275 62.1098 29.4584 62.2296 29.7192C62.3493 29.9801 62.4175 30.265 62.43 30.5559C62.4424 30.8468 62.3988 31.1374 62.3019 31.4091C62.2049 31.6807 62.0568 31.9276 61.8669 32.1339C61.5029 32.5272 61.0096 32.7482 60.4953 32.7482C59.981 32.7482 59.4876 32.5272 59.1236 32.1339L56.1591 28.9244L53.4858 31.8187L56.4503 35.0302C57.0587 35.6781 57.795 36.168 58.6037 36.463V46.9758C59.2257 47.0413 59.8553 47.0781 60.4943 47.0781C61.1334 47.0781 61.7629 47.0413 62.385 46.9758V36.4712C63.1938 36.1753 63.9306 35.6856 64.5403 35.0384C65.102 34.4299 65.5406 33.7014 65.8281 32.8993C66.1156 32.0972 66.2457 31.2391 66.2102 30.3796C66.1746 29.5201 65.9741 28.678 65.6215 27.907C65.2689 27.136 64.7719 26.4529 64.1621 25.9012L59.2597 21.4717Z" fill="white"/>
<path id="Vector_18" d="M90.75 81.875H30.25C29.7486 81.875 29.2677 82.0907 28.9131 82.4745C28.5586 82.8584 28.3594 83.379 28.3594 83.9219V96.2031C28.3594 96.746 28.5586 97.2666 28.9131 97.6505C29.2677 98.0343 29.7486 98.25 30.25 98.25H34.3924L39.7447 125.289C39.8356 125.747 40.0687 126.157 40.4052 126.452C40.7417 126.746 41.1612 126.906 41.5938 126.906H79.4062C79.8388 126.906 80.2583 126.746 80.5948 126.452C80.9313 126.157 81.1644 125.747 81.2553 125.289L86.6076 98.25H90.75C91.2514 98.25 91.7323 98.0343 92.0869 97.6505C92.4414 97.2666 92.6406 96.746 92.6406 96.2031V83.9219C92.6406 83.379 92.4414 82.8584 92.0869 82.4745C91.7323 82.0907 91.2514 81.875 90.75 81.875ZM77.8767 122.812H43.1233L38.2606 98.25H82.7394L77.8767 122.812ZM88.8594 94.1562H32.1406V85.9688H88.8594V94.1562Z" fill="black"/>
<path id="Vector_19" d="M56.7188 112.578H52.9375V116.672H56.7188V112.578Z" fill="black"/>
<path id="Vector_20" d="M68.0625 112.578H64.2812V116.672H68.0625V112.578Z" fill="black"/>
</g>
</svg>
