<svg width="18" height="21" viewBox="0 0 18 21" fill="none" xmlns="http://www.w3.org/2000/svg">
<path id="Vector" d="M14.1429 13.125C13.2345 13.125 12.3996 13.4457 11.7406 13.982L7.62284 11.3548C7.74478 10.7917 7.74478 10.2082 7.62284 9.64515L11.7406 7.01794C12.3996 7.5543 13.2345 7.875 14.1429 7.875C16.2731 7.875 18 6.11211 18 3.9375C18 1.76289 16.2731 0 14.1429 0C12.0126 0 10.2857 1.76289 10.2857 3.9375C10.2857 4.23109 10.3175 4.51705 10.3772 4.79231L6.25942 7.41952C5.60037 6.8832 4.7655 6.5625 3.85714 6.5625C1.72692 6.5625 0 8.32539 0 10.5C0 12.6746 1.72692 14.4375 3.85714 14.4375C4.7655 14.4375 5.60037 14.1168 6.25942 13.5805L10.3772 16.2077C10.3163 16.4884 10.2856 16.775 10.2857 17.0625C10.2857 19.2371 12.0126 21 14.1429 21C16.2731 21 18 19.2371 18 17.0625C18 14.8879 16.2731 13.125 14.1429 13.125Z" fill="url(#paint0_linear_203_103)" fill-opacity="0.5"/>
<defs>
<linearGradient id="paint0_linear_203_103" x1="9" y1="0" x2="9" y2="21" gradientUnits="userSpaceOnUse">
<stop stop-color="#F812D3"/>
<stop offset="1" stop-color="#192EEE"/>
</linearGradient>
</defs>
</svg>
