<svg width="25" height="17" viewBox="0 0 25 17" fill="none" xmlns="http://www.w3.org/2000/svg">
<path d="M24.8489 7.86616C22.4952 3.27371 17.8355 0.166504 12.5 0.166504C7.16447 0.166504 2.50345 3.27588 0.151018 7.86659C0.0517306 8.06299 0 8.27998 0 8.50005C0 8.72013 0.0517306 8.93712 0.151018 9.13352C2.50475 13.726 7.16447 16.8332 12.5 16.8332C17.8355 16.8332 22.4965 13.7238 24.8489 9.13308C24.9482 8.93668 25 8.71969 25 8.49962C25 8.27955 24.9482 8.06256 24.8489 7.86616ZM12.5 14.7498C11.2638 14.7498 10.0555 14.3833 9.02766 13.6965C7.99985 13.0098 7.19878 12.0336 6.72573 10.8916C6.25268 9.74957 6.12891 8.4929 6.37007 7.28052C6.61123 6.06814 7.20648 4.9545 8.08056 4.08042C8.95464 3.20634 10.0683 2.61109 11.2807 2.36993C12.493 2.12877 13.7497 2.25254 14.8917 2.72559C16.0338 3.19864 17.0099 3.99972 17.6967 5.02752C18.3834 6.05533 18.75 7.2637 18.75 8.49984C18.7504 9.32071 18.589 10.1336 18.275 10.8921C17.9611 11.6505 17.5007 12.3397 16.9203 12.9201C16.3398 13.5006 15.6507 13.9609 14.8922 14.2749C14.1338 14.5888 13.3208 14.7502 12.5 14.7498ZM12.5 4.33317C12.1281 4.33837 11.7586 4.3937 11.4015 4.49767C11.6958 4.8977 11.8371 5.38998 11.7996 5.88523C11.7621 6.38048 11.5484 6.84591 11.1972 7.1971C10.846 7.5483 10.3806 7.76201 9.88537 7.79947C9.39012 7.83694 8.89784 7.69568 8.49781 7.40131C8.27001 8.24054 8.31113 9.13008 8.61538 9.94472C8.91962 10.7594 9.47167 11.4581 10.1938 11.9425C10.916 12.427 11.7719 12.6728 12.641 12.6453C13.5102 12.6179 14.3489 12.3185 15.039 11.7895C15.7291 11.2604 16.236 10.5282 16.4882 9.69601C16.7404 8.8638 16.7253 7.97344 16.445 7.15026C16.1647 6.32708 15.6333 5.61253 14.9256 5.10718C14.2179 4.60183 13.3696 4.33112 12.5 4.33317Z" fill="#439941"/>
</svg>
