<svg width="41" height="40" viewBox="0 0 41 40" fill="none" xmlns="http://www.w3.org/2000/svg">
<path id="Vector" d="M34.8591 5.8125C31.0246 2.0625 25.9179 0 20.4908 0C9.28906 0 0.173884 8.89286 0.173884 19.8214C0.173884 23.3125 1.10737 26.7232 2.88281 29.7321L0 40L10.7717 37.2411C13.7368 38.8214 17.0772 39.6518 20.4817 39.6518H20.4908C31.6835 39.6518 41 30.7589 41 19.8304C41 14.5357 38.6937 9.5625 34.8591 5.8125ZM20.4908 36.3125C17.4525 36.3125 14.4781 35.5179 11.8882 34.0179L11.275 33.6607L4.88705 35.2946L6.58929 29.2143L6.18661 28.5893C4.49353 25.9643 3.6058 22.9375 3.6058 19.8214C3.6058 10.7411 11.1835 3.34821 20.5 3.34821C25.0118 3.34821 29.2491 5.0625 32.4339 8.17857C35.6188 11.2946 37.5772 15.4286 37.5681 19.8304C37.5681 28.9196 29.7982 36.3125 20.4908 36.3125ZM29.7525 23.9732C29.2491 23.7232 26.7507 22.5268 26.2839 22.3661C25.8172 22.1964 25.4786 22.1161 25.14 22.6161C24.8013 23.1161 23.8313 24.2232 23.5292 24.5625C23.2364 24.8929 22.9344 24.9375 22.431 24.6875C19.4475 23.2321 17.4891 22.0893 15.5214 18.7946C14.9998 17.9196 16.0431 17.9821 17.0132 16.0893C17.1779 15.7589 17.0955 15.4732 16.9674 15.2232C16.8393 14.9732 15.8234 12.5357 15.4025 11.5446C14.9906 10.5804 14.5696 10.7143 14.2585 10.6964C13.9656 10.6786 13.627 10.6786 13.2884 10.6786C12.9498 10.6786 12.4007 10.8036 11.9339 11.2946C11.4672 11.7946 10.1585 12.9911 10.1585 15.4286C10.1585 17.8661 11.9797 20.2232 12.2268 20.5536C12.483 20.8839 15.8051 25.8839 20.9027 28.0357C24.1241 29.3929 25.3871 29.5089 26.9978 29.2768C27.977 29.1339 29.9996 28.0804 30.4205 26.9196C30.8415 25.7589 30.8415 24.7679 30.7134 24.5625C30.5944 24.3393 30.2558 24.2143 29.7525 23.9732Z" fill="#00B512"/>
</svg>
